<?xml version="1.0" encoding="UTF-8"?>
<svg width="1200pt" height="1200pt" version="1.1" viewBox="0 0 1200 1200" xmlns="http://www.w3.org/2000/svg">
 <path d="m501 642c-32.957 0.39844-64.727-12.285-88.344-35.27-23.617-22.988-37.16-54.402-37.656-87.355v-46.125h-171.56c-23.344-0.75781-46.035 7.7812-63.086 23.742-17.051 15.961-27.07 38.039-27.852 61.383v317.25c0.81641 23.332 10.844 45.391 27.887 61.344 17.043 15.957 39.715 24.508 63.051 23.781h15c3.5039-0.0625 6.418 2.6836 6.5625 6.1875v112.31c0.027344 1.4492 0.86719 2.7617 2.1758 3.3945 1.3047 0.63281 2.8555 0.48047 4.0117-0.39453l150.56-120c1.2461-0.9375 2.7539-1.4609 4.3125-1.5h311.62c23.379 0.46484 45.98-8.3828 62.828-24.598s26.555-38.461 26.984-61.84v-232.31zm-182.25 103.09c-7.4609 0-14.613-2.9648-19.887-8.2383-5.2734-5.2734-8.2383-12.43-8.2383-19.887 0-7.4609 2.9648-14.613 8.2383-19.887 5.2734-5.2773 12.426-8.2383 19.887-8.2383s14.613 2.9609 19.887 8.2383c5.2734 5.2734 8.2383 12.426 8.2383 19.887 0 7.457-2.9648 14.613-8.2383 19.887-5.2734 5.2734-12.426 8.2383-19.887 8.2383zm131.25 0c-7.4609 0-14.613-2.9648-19.887-8.2383-5.2734-5.2734-8.2383-12.43-8.2383-19.887 0-7.4609 2.9648-14.613 8.2383-19.887 5.2734-5.2773 12.426-8.2383 19.887-8.2383s14.613 2.9609 19.887 8.2383c5.2734 5.2734 8.2383 12.426 8.2383 19.887 0 7.457-2.9648 14.613-8.2383 19.887-5.2734 5.2734-12.426 8.2383-19.887 8.2383zm131.25 0c-7.4609 0-14.613-2.9648-19.887-8.2383-5.2734-5.2734-8.2383-12.43-8.2383-19.887 0-7.4609 2.9648-14.613 8.2383-19.887 5.2734-5.2773 12.426-8.2383 19.887-8.2383s14.613 2.9609 19.887 8.2383c5.2734 5.2734 8.2383 12.426 8.2383 19.887 0 7.457-2.9648 14.613-8.2383 19.887-5.2734 5.2734-12.426 8.2383-19.887 8.2383z"/>
 <path d="m996.56 117h-495.56c-23.027-0.45703-45.293 8.2578-61.891 24.223s-26.172 37.875-26.609 60.902v317.25c0.46875 23.016 10.051 44.906 26.645 60.867 16.59 15.957 38.836 24.684 61.855 24.258h312.94c1.5586 0.039062 3.0664 0.5625 4.3125 1.5l150.56 120c1.1562 0.875 2.707 1.0273 4.0117 0.39453 1.3086-0.63281 2.1484-1.9453 2.1758-3.3945v-112.31c0.14453-3.5039 3.0586-6.25 6.5625-6.1875h15c23.336 0.72656 46.008-7.8242 63.051-23.781 17.043-15.953 27.07-38.012 27.887-61.344v-317.25c-0.78125-23.344-10.801-45.422-27.852-61.383-17.051-15.961-39.742-24.5-63.086-23.742zm-255.7 369.47c-4.9727 0-9.7422-1.9727-13.258-5.4883-3.5195-3.5195-5.4922-8.2852-5.4922-13.262 0-4.9727 1.9727-9.7383 5.4922-13.258 3.5156-3.5156 8.2852-5.4922 13.258-5.4922s9.7422 1.9766 13.258 5.4922c3.5156 3.5195 5.4922 8.2852 5.4922 13.258 0 4.9766-1.9766 9.7422-5.4922 13.262-3.5156 3.5156-8.2852 5.4883-13.258 5.4883zm44.262-129.46v0.003906c-9.5352 5.3477-17.215 13.469-22.027 23.285-4.8086 9.8164-6.5234 20.863-4.9102 31.672 0.40625 4.9609-1.1758 9.875-4.3984 13.668-3.2227 3.7891-7.8164 6.1445-12.777 6.5469-0.51172 0.046875-1.0273 0.0625-1.5391 0.0625l0.003906 0.003906c-4.707-0.007812-9.2383-1.7812-12.695-4.9688-3.4609-3.1914-5.5938-7.5625-5.9805-12.254-2.0781-17.508 0.9375-35.246 8.6836-51.086 7.7461-15.836 19.891-29.109 34.984-38.223 26.332-17.375 33.453-27.797 30.469-44.57-1.3008-6.8633-4.5195-13.223-9.2812-18.336-4.7656-5.1133-10.879-8.7734-17.633-10.555-19.02-6.5625-40.062-3.0664-55.941 9.2891-3.5625 3.4023-6.0547 7.7734-7.1602 12.574-1.1055 4.8008-0.78125 9.8164 0.9375 14.438 1.7734 6.4531-0.027344 13.367-4.7305 18.137-4.7031 4.7656-11.594 6.6602-18.074 4.9688-6.4805-1.6875-11.566-6.707-13.34-13.164-3.582-11.152-3.9297-23.094-1.0117-34.438 2.9219-11.344 8.9883-21.629 17.508-29.668 25.883-21.93 61.371-28.68 93.492-17.781 13.227 3.8477 25.117 11.312 34.332 21.555 9.2109 10.238 15.383 22.848 17.816 36.406 8.2227 46.184-27.52 69.766-46.727 82.438z"/>
</svg>
