<svg width="16" height="17" viewBox="0 0 16 17" fill="none" xmlns="http://www.w3.org/2000/svg">
<path fill-rule="evenodd" clip-rule="evenodd" d="M7.99996 2.50002C4.68625 2.50002 1.99996 5.18631 1.99996 8.50002C1.99996 11.8137 4.68625 14.5 7.99996 14.5C11.3137 14.5 14 11.8137 14 8.50002C14 5.18631 11.3137 2.50002 7.99996 2.50002ZM0.666626 8.50002C0.666626 4.44993 3.94987 1.16669 7.99996 1.16669C12.05 1.16669 15.3333 4.44993 15.3333 8.50002C15.3333 12.5501 12.05 15.8334 7.99996 15.8334C3.94987 15.8334 0.666626 12.5501 0.666626 8.50002Z" fill="#8593A3"/>
<path fill-rule="evenodd" clip-rule="evenodd" d="M7.99996 7.83335C8.36815 7.83335 8.66663 8.13183 8.66663 8.50002V11.1667C8.66663 11.5349 8.36815 11.8334 7.99996 11.8334C7.63177 11.8334 7.33329 11.5349 7.33329 11.1667V8.50002C7.33329 8.13183 7.63177 7.83335 7.99996 7.83335Z" fill="#8593A3"/>
<path fill-rule="evenodd" clip-rule="evenodd" d="M7.33329 5.83335C7.33329 5.46516 7.63177 5.16669 7.99996 5.16669H8.00663C8.37482 5.16669 8.67329 5.46516 8.67329 5.83335C8.67329 6.20154 8.37482 6.50002 8.00663 6.50002H7.99996C7.63177 6.50002 7.33329 6.20154 7.33329 5.83335Z" fill="#8593A3"/>
</svg>
