<svg width="24" height="24" viewBox="0 0 24 24" fill="none" xmlns="http://www.w3.org/2000/svg">
<path d="M5.808 13.1521H1.128C0.840037 13.1521 0.600037 13.3921 0.600037 13.6801V18.6001C0.600037 18.888 0.840037 19.128 1.128 19.128H5.832C6.11996 19.128 6.35996 18.888 6.35996 18.6001L6.36003 13.6801C6.33605 13.3921 6.09606 13.1521 5.808 13.1521Z" fill="black"/>
<path d="M14.352 9.02395H9.648C9.36004 9.02395 9.12004 9.26395 9.12004 9.55191V18.6239C9.12004 18.9119 9.36004 19.1519 9.648 19.1519H14.352C14.64 19.1519 14.88 18.9119 14.88 18.6239L14.88 9.52791C14.8561 9.23995 14.64 9.02393 14.3521 9.02393L14.352 9.02395Z" fill="black"/>
<path d="M22.872 4.87207H18.192C17.904 4.87207 17.664 5.11207 17.664 5.40003V18.624C17.664 18.912 17.904 19.152 18.192 19.152H22.896C23.184 19.152 23.424 18.912 23.424 18.624V5.40003C23.4 5.11207 23.16 4.87207 22.872 4.87207Z" fill="black"/>
</svg>
