<svg width="24" height="24" viewBox="0 0 24 24" fill="none" xmlns="http://www.w3.org/2000/svg">
<path fill-rule="evenodd" clip-rule="evenodd" d="M5 4C4.73478 4 4.48043 4.10536 4.29289 4.29289C4.10536 4.48043 4 4.73478 4 5V19C4 19.2652 4.10536 19.5196 4.29289 19.7071C4.48043 19.8946 4.73478 20 5 20H9C9.55228 20 10 20.4477 10 21C10 21.5523 9.55228 22 9 22H5C4.20435 22 3.44129 21.6839 2.87868 21.1213C2.31607 20.5587 2 19.7957 2 19V5C2 4.20435 2.31607 3.44129 2.87868 2.87868C3.44129 2.31607 4.20435 2 5 2H9C9.55228 2 10 2.44772 10 3C10 3.55228 9.55228 4 9 4H5Z" fill="black"/>
<path d="M21.7071 11.2929C21.5262 11.1123 21.2758 11 21 11H18.5858L19.5858 12L18.5858 13H21C21.4172 13 21.7747 12.7446 21.9246 12.3815C21.9736 12.2629 21.9987 12.1367 21.9999 12.0103C22 12.0033 22 11.9964 21.9999 11.9894C21.9998 11.9769 21.9994 11.9645 21.9989 11.952C21.9985 11.9449 21.9981 11.9378 21.9976 11.9306C21.9902 11.8236 21.9657 11.7176 21.924 11.617C21.8744 11.4975 21.8023 11.3897 21.713 11.2989C21.7111 11.2969 21.7091 11.2949 21.7071 11.2929Z" fill="black"/>
<path d="M9 11C8.44772 11 8 11.4477 8 12C8 12.5523 8.44772 13 9 13H18.5858L19.5858 12L18.5858 11H9Z" fill="black"/>
<path d="M16.7071 6.29289C16.3166 5.90237 15.6834 5.90237 15.2929 6.29289C14.9024 6.68342 14.9024 7.31658 15.2929 7.70711L18.5858 11H21C21.2758 11 21.5262 11.1123 21.7071 11.2929L16.7071 6.29289Z" fill="black"/>
<path d="M16.7071 17.7071L21.7071 12.7071C21.8033 12.6109 21.8758 12.5 21.9246 12.3815C21.7747 12.7446 21.4172 13 21 13H18.5858L15.2929 16.2929C14.9024 16.6834 14.9024 17.3166 15.2929 17.7071C15.6834 18.0976 16.3166 18.0976 16.7071 17.7071Z" fill="black"/>
</svg>
