<svg width="24" height="24" viewBox="0 0 24 24" fill="none" xmlns="http://www.w3.org/2000/svg">
<g clip-path="url(#clip0_84_459)">
<path d="M2.93415 19.687C3.26254 19.7536 3.56513 19.9124 3.80653 20.1448C4.04793 20.3772 4.21814 20.6736 4.29724 20.9992C4.44013 21.6782 4.83074 22.2797 5.39295 22.6864C5.85979 23.0204 6.41831 23.2022 6.9923 23.207C7.56628 23.2118 8.12777 23.0394 8.60016 22.7133C8.80162 22.5716 8.98404 22.4046 9.14295 22.2163C9.4437 21.8601 9.6495 21.4336 9.74123 20.9764C9.83296 20.5193 9.80764 20.0464 9.66763 19.6017C9.57548 19.2782 9.57368 18.9355 9.66241 18.611C9.75115 18.2865 9.92703 17.9925 10.171 17.7608L17.761 10.1713C17.9927 9.92755 18.2866 9.75172 18.6109 9.66286C18.9353 9.574 19.2778 9.57549 19.6014 9.66716C20.0461 9.80755 20.5192 9.83311 20.9765 9.74147C21.4338 9.64982 21.8605 9.44394 22.2168 9.14301C22.405 8.98405 22.5718 8.80143 22.7132 8.59969C22.9749 8.22286 23.1392 7.78707 23.1913 7.33127C23.2435 6.87546 23.1819 6.41383 23.012 5.98765C22.8422 5.56146 22.5694 5.18399 22.2181 4.88897C21.8667 4.59395 21.4478 4.39057 20.9986 4.29702C20.6732 4.21767 20.3771 4.04737 20.1449 3.806C19.9126 3.56463 19.7539 3.26216 19.6872 2.93393C19.6017 2.56971 19.4436 2.2265 19.2223 1.92489C19.001 1.62329 18.721 1.3695 18.3992 1.17875C18.0773 0.987995 17.7203 0.864216 17.3495 0.814834C16.9786 0.765452 16.6017 0.791485 16.2411 0.891371C15.8806 0.991257 15.544 1.16294 15.2514 1.39611C14.9589 1.62929 14.7165 1.91916 14.5387 2.24832C14.3609 2.57749 14.2515 2.93917 14.2169 3.31168C14.1823 3.68418 14.2234 4.05983 14.3376 4.41608C14.4271 4.7313 14.4292 5.06492 14.3439 5.38128C14.2585 5.69765 14.0888 5.98487 13.8528 6.21227L6.21272 13.8523C5.98527 14.0884 5.69796 14.2581 5.38149 14.3435C5.06503 14.4289 4.73132 14.4267 4.41602 14.3371C4.05976 14.2229 3.68411 14.1819 3.31161 14.2165C2.93911 14.2511 2.57743 14.3606 2.24828 14.5384C1.91913 14.7162 1.62928 14.9587 1.39613 15.2512C1.16297 15.5438 0.991317 15.8804 0.891452 16.241C0.791588 16.6015 0.765575 16.9785 0.814974 17.3493C0.864373 17.7201 0.988166 18.0772 1.17893 18.399C1.36969 18.7208 1.62349 19.0008 1.9251 19.2221C2.22671 19.4434 2.56994 19.6015 2.93415 19.687ZM2.20919 15.2812C2.48962 15.0569 2.82123 14.9055 3.17442 14.8404C3.52761 14.7754 3.8914 14.7989 4.23334 14.9086C4.65328 15.0347 5.09989 15.0425 5.52395 14.931C5.94802 14.8195 6.33309 14.5932 6.63675 14.2769L14.2768 6.63653C14.5932 6.33294 14.8196 5.94794 14.9311 5.52393C15.0427 5.09992 15.0351 4.65335 14.9091 4.23339C14.8075 3.91625 14.7799 3.58002 14.8285 3.25056C14.8772 2.9211 15.0007 2.60719 15.1897 2.33295C15.3787 2.05872 15.628 1.83148 15.9185 1.6687C16.2091 1.50592 16.5331 1.41194 16.8656 1.39399C17.1709 1.37859 17.476 1.42706 17.7614 1.5363C18.0468 1.64554 18.3063 1.81315 18.5233 2.0284C18.8097 2.31475 19.0103 2.67558 19.1023 3.07003C19.1953 3.50973 19.4115 3.91387 19.7257 4.2352C20.0399 4.55653 20.4391 4.78177 20.8766 4.88457C21.2284 4.95782 21.5565 5.11698 21.8318 5.34788C22.1071 5.57877 22.3209 5.87422 22.4543 6.20785C22.5876 6.54149 22.6363 6.90294 22.596 7.25997C22.5557 7.61699 22.4276 7.95848 22.2232 8.25398C22.1111 8.4133 21.9792 8.55775 21.8306 8.68385C21.5511 8.91952 21.2165 9.08073 20.858 9.15253C20.4995 9.22433 20.1286 9.20438 19.7799 9.09454C19.3519 8.96961 18.8979 8.96439 18.4673 9.07943C18.0366 9.19448 17.6457 9.42539 17.337 9.74706L9.74701 17.3368C9.4255 17.6457 9.19472 18.0367 9.07968 18.4674C8.96465 18.8981 8.96977 19.3521 9.09449 19.7802C9.20442 20.1288 9.22441 20.4995 9.15261 20.8579C9.0808 21.2164 8.91954 21.5508 8.6838 21.8302C8.55817 21.979 8.41387 22.111 8.25447 22.223C7.95901 22.4274 7.61756 22.5555 7.26055 22.5959C6.90355 22.6363 6.5421 22.5877 6.20845 22.4544C5.8748 22.3212 5.57931 22.1074 5.34835 21.8322C5.11739 21.557 4.95814 21.2289 4.8848 20.8772C4.78227 20.4396 4.55716 20.0402 4.23584 19.7259C3.91452 19.4117 3.5103 19.1954 3.07052 19.1026C2.67281 19.0091 2.30941 18.8056 2.02186 18.5154C1.7343 18.2252 1.53417 17.8599 1.44434 17.4614C1.3545 17.0628 1.37859 16.6471 1.51384 16.2615C1.64909 15.876 1.89005 15.5363 2.20919 15.2812Z" fill="black"/>
</g>
<defs>
<clipPath id="clip0_84_459">
<rect width="24" height="24" fill="white"/>
</clipPath>
</defs>
</svg>
