<svg width="25" height="24" viewBox="0 0 25 24" fill="none" xmlns="http://www.w3.org/2000/svg">
<path fill-rule="evenodd" clip-rule="evenodd" d="M3.5 14C4.05228 14 4.5 14.4477 4.5 15V19C4.5 19.2652 4.60536 19.5196 4.79289 19.7071C4.98043 19.8946 5.23478 20 5.5 20H19.5C19.7652 20 20.0196 19.8946 20.2071 19.7071C20.3946 19.5196 20.5 19.2652 20.5 19V15C20.5 14.4477 20.9477 14 21.5 14C22.0523 14 22.5 14.4477 22.5 15V19C22.5 19.7957 22.1839 20.5587 21.6213 21.1213C21.0587 21.6839 20.2957 22 19.5 22H5.5C4.70435 22 3.94129 21.6839 3.37868 21.1213C2.81607 20.5587 2.5 19.7957 2.5 19V15C2.5 14.4477 2.94772 14 3.5 14Z" fill="black"/>
<path d="M6.79289 8.70711C7.18342 9.09763 7.81658 9.09763 8.20711 8.70711L11.5 5.41421V3C11.5 2.7244 11.6115 2.47484 11.7918 2.29396L11.7929 2.29289L6.79289 7.29289C6.40237 7.68342 6.40237 8.31658 6.79289 8.70711Z" fill="black"/>
<path d="M12.5 16C13.0523 16 13.5 15.5523 13.5 15V5.41421L12.5 4.41421L11.5 5.41421V15C11.5 15.5523 11.9477 16 12.5 16Z" fill="black"/>
<path fill-rule="evenodd" clip-rule="evenodd" d="M13.208 2.29383L18.2071 7.29289C18.5976 7.68342 18.5976 8.31658 18.2071 8.70711C17.8166 9.09763 17.1834 9.09763 16.7929 8.70711L13.5 5.41421V3C13.5 2.98276 13.4996 2.96562 13.4987 2.94858C13.4857 2.69358 13.3769 2.46336 13.208 2.29383ZM12.1172 2.0759C12.0001 2.12434 11.8904 2.19596 11.795 2.29078C11.8867 2.19966 11.9959 2.12619 12.1172 2.0759Z" fill="black"/>
<path d="M13.2071 2.29289L13.205 2.29078C13.1133 2.19965 13.0041 2.12617 12.8828 2.07588C12.7605 2.02529 12.6303 2 12.5 2C12.3697 2 12.2394 2.0253 12.1172 2.0759C11.9959 2.12619 11.8867 2.19966 11.795 2.29078L11.7929 2.29289L11.7918 2.29396C11.6115 2.47484 11.5 2.7244 11.5 3V5.41421L12.5 4.41421L13.5 5.41421V3C13.5 2.98276 13.4996 2.96562 13.4987 2.94858C13.4857 2.69358 13.3769 2.46336 13.208 2.29383L13.2071 2.29289Z" fill="black"/>
</svg>
